700 679 1 0         
16 Autodesk AutoCAD 20 ASM 227.0.0.65535 NT 24 Tue Mar 22 20:42:59 2022 
1 9.999999999999999547e-07 1.000000000000000036e-10 
body $-1 -1 $-1 $1 $-1 $2 #
lump $-1 -1 $-1 $-1 $3 $0 #
transform $-1 -1 1 0 0 0 6.123233995736766036e-17 -1 0 1 6.123233995736766036e-17 0 -340.3207259584511917 538.2731646146268076 1 rotate no_reflect no_shear #
shell $-1 -1 $-1 $-1 $-1 $4 $-1 $1 #
face $5 -1 $-1 $6 $7 $3 $-1 $8 reversed single #
color-adesk-attrib $-1 -1 $-1 $-1 $4 256 #
face $9 -1 $-1 $10 $11 $3 $-1 $12 forward single #
loop $-1 -1 $-1 $13 $14 $4 #
cone-surface $-1 -1 $-1 258.4337274852313726 25.57621932808774545 395.6969452865389485 0 1 -6.123233995736766036e-17 -1.5 0 0 1 I I 0 1 1.5 forward I I I I #
color-adesk-attrib $-1 -1 $-1 $-1 $6 256 #
face $15 -1 $-1 $16 $17 $3 $-1 $18 reversed single #
loop $-1 -1 $-1 $-1 $19 $6 #
cone-surface $-1 -1 $-1 202.233727485231384 25.57621932808781295 434.6969452865389485 -0 -0 -1 -0.5656854249492405673 0.5656854249492354603 0 1 I I 0 1 0.8000000000000000444 forward I I I I #
loop $-1 -1 $-1 $-1 $20 $4 #
coedge $-1 -1 $-1 $14 $14 $21 $22 reversed $7 $-1 #
color-adesk-attrib $-1 -1 $-1 $-1 $10 256 #
face $23 -1 $-1 $24 $25 $3 $-1 $26 forward single #
loop $-1 -1 $-1 $27 $21 $10 #
plane-surface $-1 -1 $-1 201.4337274852313726 26.37621932808781366 434.6969452865389485 0 -1 0 -0 -0 -1 forward_v I I I I #
coedge $-1 -1 $-1 $28 $29 $30 $31 forward $11 $-1 #
coedge $-1 -1 $-1 $20 $20 $32 $33 reversed $13 $-1 #
coedge $-1 -1 $-1 $21 $21 $14 $22 forward $17 $-1 #
edge $34 -1 $-1 $35 -3.141592653589793116 $35 3.141592653589793116 $21 $36 forward @7 unknown #
color-adesk-attrib $-1 -1 $-1 $-1 $16 256 #
face $37 -1 $-1 $38 $39 $3 $-1 $40 reversed single #
loop $-1 -1 $-1 $-1 $41 $16 #
plane-surface $-1 -1 $-1 271.4337274852313726 24.37621932808781366 434.6969452865388917 -0 0 1 -1 -0 -0 forward_v I I I I #
loop $-1 -1 $-1 $42 $43 $10 #
coedge $-1 -1 $-1 $44 $19 $45 $46 forward $11 $-1 #
coedge $-1 -1 $-1 $19 $44 $43 $47 forward $11 $-1 #
coedge $-1 -1 $-1 $48 $49 $19 $31 reversed $50 $-1 #
edge $51 -1 $-1 $52 -0.7853981633974528309 $53 0.7853981633974438381 $30 $54 forward @7 unknown #
coedge $-1 -1 $-1 $32 $32 $20 $33 forward $55 $-1 #
edge $56 -1 $-1 $57 -3.141592653589793116 $57 3.141592653589793116 $32 $58 forward @7 unknown #
color-adesk-attrib $-1 -1 $-1 $-1 $22 256 #
vertex $-1 -1 $-1 $22 $59 #
ellipse-curve $-1 -1 $-1 258.4337274852313726 26.37621932808781011 395.6969452865389485 0 -1 0 -1.5 0 0 1 I I #
color-adesk-attrib $-1 -1 $-1 $-1 $24 256 #
face $60 -1 $-1 $61 $62 $3 $-1 $63 forward single #
loop $-1 -1 $-1 $64 $65 $24 #
cone-surface $-1 -1 $-1 258.4337274852313726 23.57621932808781295 404.6969452865389485 0 1 0 -4.5 0 0 1 I I 0 1 4.5 forward I I I I #
coedge $-1 -1 $-1 $66 $67 $44 $68 reversed $25 $-1 #
loop $-1 -1 $-1 $-1 $69 $10 #
coedge $-1 -1 $-1 $70 $71 $29 $47 reversed $27 $-1 #
coedge $-1 -1 $-1 $29 $28 $41 $68 forward $11 $-1 #
coedge $-1 -1 $-1 $72 $73 $28 $46 reversed $74 $-1 #
edge $75 -1 $-1 $53 -70.00000000000005684 $76 0 $45 $77 forward @7 tangent #
edge $78 -1 $-1 $79 5.684341886080801487e-14 $52 70.00000000000005684 $43 $80 forward @7 tangent #
coedge $-1 -1 $-1 $81 $30 $71 $82 reversed $50 $-1 #
coedge $-1 -1 $-1 $30 $83 $72 $84 forward $50 $-1 #
loop $-1 -1 $-1 $-1 $30 $85 #
color-adesk-attrib $-1 -1 $-1 $-1 $31 256 #
vertex $-1 -1 $-1 $47 $86 #
vertex $-1 -1 $-1 $46 $87 #
ellipse-curve $-1 -1 $-1 202.233727485231384 25.57621932808781295 364.6969452865388917 0 0 1 -0.5656854249492405673 0.5656854249492354603 0 1 I I #
loop $-1 -1 $-1 $88 $32 $89 #
color-adesk-attrib $-1 -1 $-1 $-1 $33 256 #
vertex $-1 -1 $-1 $33 $90 #
ellipse-curve $-1 -1 $-1 258.4337274852313726 25.57621932808781295 395.6969452865389485 0 1 0 -1.5 0 0 1 I I #
point $-1 -1 $-1 259.9337274852313726 26.37621932808781366 395.6969452865389485 #
color-adesk-attrib $-1 -1 $-1 $-1 $38 256 #
face $91 -1 $-1 $92 $93 $3 $-1 $94 forward single #
loop $-1 -1 $-1 $-1 $95 $38 #
cone-surface $-1 -1 $-1 225.6337274852315034 25.57621932808781295 369.6969452865388348 0 1 0 4.999999999999914735 0 1.136868377216160297e-13 1 I I 0 1 4.999999999999914735 forward I I I I #
loop $-1 -1 $-1 $-1 $96 $24 #
coedge $-1 -1 $-1 $65 $65 $69 $97 reversed $39 $-1 #
coedge $-1 -1 $-1 $98 $41 $73 $99 forward $25 $-1 #
coedge $-1 -1 $-1 $41 $100 $70 $101 forward $25 $-1 #
edge $102 -1 $-1 $76 -0.7853981633974438381 $79 0.7853981633974528309 $41 $103 forward @7 unknown #
coedge $-1 -1 $-1 $69 $69 $65 $97 forward $42 $-1 #
coedge $-1 -1 $-1 $104 $43 $67 $101 reversed $27 $-1 #
coedge $-1 -1 $-1 $43 $105 $48 $82 forward $27 $-1 #
coedge $-1 -1 $-1 $106 $45 $49 $84 reversed $74 $-1 #
coedge $-1 -1 $-1 $45 $107 $66 $99 reversed $74 $-1 #
loop $-1 -1 $-1 $108 $45 $109 #
color-adesk-attrib $-1 -1 $-1 $-1 $46 256 #
vertex $-1 -1 $-1 $99 $110 #
straight-curve $-1 -1 $-1 201.4337274852313726 25.57621932808781295 434.6969452865389485 -0 0 1 F -72.48000100000007251 F 2.480001000000015665 #
color-adesk-attrib $-1 -1 $-1 $-1 $47 256 #
vertex $-1 -1 $-1 $68 $111 #
straight-curve $-1 -1 $-1 202.233727485231384 26.37621932808781366 434.6969452865389485 0 -0 -1 F -2.480001000000015665 F 72.48000100000007251 #
coedge $-1 -1 $-1 $112 $48 $113 $114 reversed $50 $-1 #
edge $115 -1 $-1 $116 0 $52 23.40000000000003411 $48 $117 forward @7 unknown #
coedge $-1 -1 $-1 $49 $118 $119 $120 forward $50 $-1 #
edge $121 -1 $-1 $122 -14.99999999999999822 $53 -3 $49 $123 forward @7 unknown #
face $124 -1 $-1 $125 $50 $3 $-1 $126 forward single #
point $-1 -1 $-1 202.233727485231384 26.37621932808781366 364.6969452865388917 #
point $-1 -1 $-1 201.4337274852313726 25.57621932808781295 364.6969452865388917 #
loop $-1 -1 $-1 $127 $128 $89 #
face $129 -1 $-1 $130 $55 $3 $-1 $131 reversed single #
point $-1 -1 $-1 259.9337274852313726 25.57621932808774545 395.6969452865389485 #
color-adesk-attrib $-1 -1 $-1 $-1 $61 256 #
face $132 -1 $-1 $133 $134 $3 $-1 $135 forward single #
loop $-1 -1 $-1 $-1 $136 $61 #
plane-surface $-1 -1 $-1 230.6337274852313328 25.57621932808781295 379.6969452865387211 1 0 8.526512829121395975e-15 8.526512829121395975e-15 0 -1 forward_v I I I I #
coedge $-1 -1 $-1 $113 $137 $138 $139 forward $62 $-1 #
coedge $-1 -1 $-1 $96 $96 $128 $140 reversed $64 $-1 #
edge $141 -1 $-1 $142 -3.141592653589793116 $142 3.141592653589793116 $69 $143 forward @7 unknown #
coedge $-1 -1 $-1 $144 $66 $145 $146 reversed $25 $-1 #
edge $147 -1 $-1 $76 3 $148 14.99999999999961808 $66 $149 forward @7 unknown #
coedge $-1 -1 $-1 $67 $150 $151 $152 forward $25 $-1 #
edge $153 -1 $-1 $154 10.80000000000046612 $79 34.19999999999998863 $67 $155 forward @7 unknown #
color-adesk-attrib $-1 -1 $-1 $-1 $68 256 #
ellipse-curve $-1 -1 $-1 202.233727485231384 25.57621932808781295 434.6969452865388917 0 -0 -1 -0.5656854249492405673 0.5656854249492354603 0 1 I I #
coedge $-1 -1 $-1 $156 $70 $157 $158 forward $27 $-1 #
coedge $-1 -1 $-1 $71 $159 $160 $161 forward $27 $-1 #
coedge $-1 -1 $-1 $162 $72 $163 $164 forward $74 $-1 #
coedge $-1 -1 $-1 $73 $162 $165 $166 forward $74 $-1 #
loop $-1 -1 $-1 $167 $168 $109 #
face $169 -1 $-1 $170 $74 $3 $-1 $171 forward single #
point $-1 -1 $-1 201.4337274852313726 25.57621932808781295 434.6969452865389485 #
point $-1 -1 $-1 202.233727485231384 26.37621932808781366 434.6969452865388917 #
coedge $-1 -1 $-1 $118 $81 $172 $173 forward $50 $-1 #
coedge $-1 -1 $-1 $160 $95 $81 $114 forward $62 $-1 #
edge $174 -1 $-1 $175 0 $116 0.8000000000000007105 $81 $176 forward @7 tangent #
color-adesk-attrib $-1 -1 $-1 $-1 $82 256 #
vertex $-1 -1 $-1 $114 $177 #
straight-curve $-1 -1 $-1 225.6337274852314181 26.37621932808781366 364.6969452865389485 -1 0 -2.348901605818508738e-15 I I #
coedge $-1 -1 $-1 $83 $112 $178 $179 forward $50 $-1 #
coedge $-1 -1 $-1 $180 $163 $83 $120 reversed $181 $-1 #
edge $182 -1 $-1 $183 -0.8000000000000113687 $122 0 $83 $184 forward @7 tangent #
color-adesk-attrib $-1 -1 $-1 $-1 $84 256 #
vertex $-1 -1 $-1 $84 $185 #
straight-curve $-1 -1 $-1 201.4337274852313726 28.57621932808781295 364.6969452865388917 0 1 0 I I #
color-adesk-attrib $-1 -1 $-1 $-1 $85 256 #
face $186 -1 $-1 $109 $187 $3 $-1 $188 forward single #
plane-surface $-1 -1 $-1 240.6337274852314749 24.37621932808781366 364.6969452865388917 -0 -0 -1 1 -0 -0 forward_v I I I I #
loop $-1 -1 $-1 $-1 $189 $89 #
coedge $-1 -1 $-1 $128 $128 $96 $140 forward $88 $-1 #
color-adesk-attrib $-1 -1 $-1 $-1 $89 256 #
face $190 -1 $-1 $191 $192 $3 $-1 $193 reversed single #
plane-surface $-1 -1 $-1 250.8378569810989518 25.57621932808781295 397.35073172285189 0 1 0 0 0 1 forward_v I I I I #
color-adesk-attrib $-1 -1 $-1 $-1 $92 256 #
face $194 -1 $-1 $195 $196 $3 $-1 $197 forward single #
loop $-1 -1 $-1 $-1 $198 $92 #
cone-surface $-1 -1 $-1 235.6337274852313044 25.57621932808781295 379.696945286538778 0 1 0 -2.842170943040400743e-14 0 5 1 I I 0 -1 5 forward I I I I #
coedge $-1 -1 $-1 $199 $200 $201 $202 forward $93 $-1 #
coedge $-1 -1 $-1 $95 $160 $199 $203 reversed $62 $-1 #
coedge $-1 -1 $-1 $201 $172 $95 $139 reversed $127 $-1 #
edge $204 -1 $-1 $205 0 $175 1.570796326794936304 $95 $206 forward @7 unknown #
edge $207 -1 $-1 $208 -3.141592653589793116 $208 3.141592653589793116 $128 $209 forward @7 unknown #
color-adesk-attrib $-1 -1 $-1 $-1 $97 256 #
vertex $-1 -1 $-1 $97 $210 #
ellipse-curve $-1 -1 $-1 258.4337274852313726 26.37621932808782077 404.6969452865389485 -0 -1 -0 -4.5 0 0 1 I I #
coedge $-1 -1 $-1 $150 $98 $211 $212 reversed $25 $-1 #
coedge $-1 -1 $-1 $165 $213 $98 $146 forward $214 $-1 #
edge $215 -1 $-1 $216 -0.8000000000000113687 $148 0 $98 $217 forward @7 tangent #
color-adesk-attrib $-1 -1 $-1 $-1 $99 256 #
vertex $-1 -1 $-1 $146 $218 #
straight-curve $-1 -1 $-1 201.4337274852313726 28.57621932808781295 434.6969452865389485 0 -1 0 I I #
coedge $-1 -1 $-1 $100 $144 $219 $220 forward $25 $-1 #
coedge $-1 -1 $-1 $221 $157 $100 $152 reversed $222 $-1 #
edge $223 -1 $-1 $224 0 $154 0.8000000000000007105 $100 $225 forward @7 tangent #
color-adesk-attrib $-1 -1 $-1 $-1 $101 256 #
vertex $-1 -1 $-1 $152 $226 #
straight-curve $-1 -1 $-1 236.4337274852313726 26.37621932808781366 434.6969452865388917 -1 -0 0 I I #
coedge $-1 -1 $-1 $227 $104 $228 $229 forward $27 $-1 #
coedge $-1 -1 $-1 $151 $230 $104 $158 reversed $222 $-1 #
edge $231 -1 $-1 $154 0 $232 1.570796326794868136 $157 $233 forward @7 unknown #
coedge $-1 -1 $-1 $105 $234 $235 $236 forward $27 $-1 #
coedge $-1 -1 $-1 $137 $113 $105 $161 reversed $62 $-1 #
edge $237 -1 $-1 $238 0 $116 1.570796326794936304 $160 $239 forward @7 unknown #
coedge $-1 -1 $-1 $107 $106 $240 $241 reversed $74 $-1 #
coedge $-1 -1 $-1 $119 $242 $106 $164 reversed $181 $-1 #
edge $243 -1 $-1 $122 0 $244 1.570796326794918318 $106 $245 forward @7 unknown #
coedge $-1 -1 $-1 $246 $145 $107 $166 reversed $214 $-1 #
edge $247 -1 $-1 $248 0 $148 1.570796326794904774 $107 $249 forward @7 unknown #
loop $-1 -1 $-1 $-1 $250 $109 #
coedge $-1 -1 $-1 $251 $252 $253 $254 forward $108 $-1 #
color-adesk-attrib $-1 -1 $-1 $-1 $109 256 #
face $255 -1 $-1 $256 $214 $3 $-1 $257 reversed single #
plane-surface $-1 -1 $-1 201.4337274852313726 28.57621932808781295 434.6969452865389485 -1 0 0 -0 -0 -1 forward_v I I I I #
coedge $-1 -1 $-1 $138 $258 $112 $173 reversed $127 $-1 #
edge $259 -1 $-1 $175 0 $260 23.40000000000003411 $112 $261 forward @7 unknown #
color-adesk-attrib $-1 -1 $-1 $-1 $114 256 #
vertex $-1 -1 $-1 $173 $262 #
straight-curve $-1 -1 $-1 225.6337274852314181 25.57621932808781295 364.6969452865389485 0 1 0 I I #
point $-1 -1 $-1 225.6337274852314181 26.37621932808781366 364.6969452865389485 #
coedge $-1 -1 $-1 $263 $264 $118 $179 reversed $187 $-1 #
edge $265 -1 $-1 $260 3 $183 14.99999999999999822 $118 $266 forward @7 unknown #
coedge $-1 -1 $-1 $242 $119 $264 $267 reversed $181 $-1 #
loop $-1 -1 $-1 $-1 $180 $256 #
color-adesk-attrib $-1 -1 $-1 $-1 $120 256 #
vertex $-1 -1 $-1 $120 $268 #
straight-curve $-1 -1 $-1 201.4337274852313726 13.57621932808776322 364.6969452865388917 -1 0 -0 I I #
point $-1 -1 $-1 201.4337274852313726 13.57621932808781473 364.6969452865389485 #
color-adesk-attrib $-1 -1 $-1 $-1 $125 256 #
loop $-1 -1 $-1 $269 $263 $125 #
plane-surface $-1 -1 $-1 202.233727485231384 28.57621932808781295 364.6969452865389485 1 0 0 0 0 1 forward_v I I I I #
coedge $-1 -1 $-1 $270 $271 $272 $273 reversed $127 $-1 #
color-adesk-attrib $-1 -1 $-1 $-1 $130 256 #
face $274 -1 $-1 $-1 $275 $3 $-1 $276 reversed single #
loop $-1 -1 $-1 $-1 $272 $130 #
plane-surface $-1 -1 $-1 240.6337274852315034 23.57621932808781295 384.6969452865388917 3.193450497798236915e-15 0 1 1 0 -3.193450497798236915e-15 forward_v I I I I #
color-adesk-attrib $-1 -1 $-1 $-1 $133 256 #
face $277 -1 $-1 $278 $279 $3 $-1 $280 forward single #
loop $-1 -1 $-1 $-1 $281 $133 #
cone-surface $-1 -1 $-1 265.4337274852313726 25.57621932808781295 389.696945286538778 0 1 0 5 0 5.684341886080801487e-14 1 I I 0 1 5 forward I I I I #
coedge $-1 -1 $-1 $282 $283 $271 $284 forward $134 $-1 #
coedge $-1 -1 $-1 $235 $136 $137 $203 forward $93 $-1 #
coedge $-1 -1 $-1 $136 $235 $282 $285 reversed $93 $-1 #
coedge $-1 -1 $-1 $271 $138 $136 $202 reversed $127 $-1 #
edge $286 -1 $-1 $287 0 $205 9.999999999999772626 $136 $288 forward @7 unknown #
edge $289 -1 $-1 $205 0 $238 0.8000000000000007105 $199 $290 forward @7 tangent #
color-adesk-attrib $-1 -1 $-1 $-1 $139 256 #
vertex $-1 -1 $-1 $202 $291 #
ellipse-curve $-1 -1 $-1 225.6337274852315034 25.57621932808781295 369.6969452865388348 0 1 0 4.999999999999914735 0 1.136868377216160297e-13 1 F 0 F 1.570796326794936304 #
color-adesk-attrib $-1 -1 $-1 $-1 $140 256 #
vertex $-1 -1 $-1 $140 $292 #
ellipse-curve $-1 -1 $-1 258.4337274852313726 25.57621932808782006 404.6969452865389485 0 1 0 -4.5 0 0 1 I I #
point $-1 -1 $-1 262.9337274852313726 26.37621932808782077 404.6969452865389485 #
coedge $-1 -1 $-1 $293 $263 $144 $212 forward $187 $-1 #
edge $294 -1 $-1 $295 3 $216 14.99999999999961808 $144 $296 forward @7 unknown #
coedge $-1 -1 $-1 $145 $246 $293 $297 reversed $214 $-1 #
loop $-1 -1 $-1 $-1 $213 $170 #
color-adesk-attrib $-1 -1 $-1 $-1 $146 256 #
vertex $-1 -1 $-1 $297 $298 #
straight-curve $-1 -1 $-1 201.4337274852313726 13.57621932808798348 434.6969452865388917 -1 0 0 I I #
point $-1 -1 $-1 201.4337274852313726 13.57621932808819487 434.6969452865389485 #
coedge $-1 -1 $-1 $258 $299 $150 $220 reversed $127 $-1 #
edge $300 -1 $-1 $295 0.7999999999981071142 $224 24.19999999999762963 $150 $301 forward @7 unknown #
coedge $-1 -1 $-1 $230 $151 $299 $302 forward $222 $-1 #
loop $-1 -1 $-1 $-1 $221 $303 #
color-adesk-attrib $-1 -1 $-1 $-1 $152 256 #
vertex $-1 -1 $-1 $220 $304 #
straight-curve $-1 -1 $-1 225.6337274852309065 25.57621932808781295 434.6969452865388348 0 1 0 I I #
point $-1 -1 $-1 225.6337274852309065 26.37621932808781366 434.6969452865388348 #
coedge $-1 -1 $-1 $305 $156 $306 $307 forward $27 $-1 #
coedge $-1 -1 $-1 $308 $309 $156 $229 reversed $310 $-1 #
edge $311 -1 $-1 $232 0 $312 8.000000000000056843 $228 $313 forward @7 unknown #
coedge $-1 -1 $-1 $157 $221 $308 $314 forward $222 $-1 #
color-adesk-attrib $-1 -1 $-1 $-1 $158 256 #
vertex $-1 -1 $-1 $314 $315 #
ellipse-curve $-1 -1 $-1 225.6337274852308781 26.37621932808781366 429.6969452865388348 0 1 0 2.842170943040400743e-14 0 5 1 I I #
coedge $-1 -1 $-1 $159 $316 $317 $318 forward $27 $-1 #
coedge $-1 -1 $-1 $200 $199 $159 $236 reversed $93 $-1 #
edge $319 -1 $-1 $320 0 $238 9.999999999999772626 $235 $321 forward @7 unknown #
color-adesk-attrib $-1 -1 $-1 $-1 $161 256 #
vertex $-1 -1 $-1 $203 $322 #
ellipse-curve $-1 -1 $-1 225.6337274852315034 26.37621932808781366 369.6969452865388348 0 1 0 4.999999999999914735 0 1.136868377216160297e-13 1 I I #
coedge $-1 -1 $-1 $323 $324 $162 $241 forward $325 $-1 #
edge $326 -1 $-1 $248 -65 $244 -5 $162 $327 forward @7 unknown #
coedge $-1 -1 $-1 $163 $180 $323 $328 forward $181 $-1 #
color-adesk-attrib $-1 -1 $-1 $-1 $164 256 #
vertex $-1 -1 $-1 $164 $329 #
ellipse-curve $-1 -1 $-1 201.4337274852313726 13.57621932808776322 369.6969452865388917 -1 0 0 0 5.151434834260726348e-14 -4.999999999999943157 1 I I #
coedge $-1 -1 $-1 $213 $165 $324 $330 reversed $214 $-1 #
color-adesk-attrib $-1 -1 $-1 $-1 $166 256 #
vertex $-1 -1 $-1 $241 $331 #
ellipse-curve $-1 -1 $-1 201.4337274852313726 13.57621932808798348 429.696945286538778 -1 0 0 0 -5.00000000000017053 1.705302565824240446e-13 1 I I #
coedge $-1 -1 $-1 $332 $333 $334 $335 forward $167 $-1 #
coedge $-1 -1 $-1 $336 $168 $337 $338 forward $108 $-1 #
coedge $-1 -1 $-1 $168 $336 $339 $340 forward $108 $-1 #
coedge $-1 -1 $-1 $341 $342 $168 $254 reversed $343 $-1 #
edge $344 -1 $-1 $345 -3.141592653589793116 $346 0 $168 $347 forward @7 unknown #
color-adesk-attrib $-1 -1 $-1 $-1 $170 256 #
face $348 -1 $-1 $349 $181 $3 $-1 $350 reversed single #
cone-surface $-1 -1 $-1 201.4337274852313726 13.57621932808798348 429.696945286538778 1 0 0 0 -5.00000000000017053 1.705302565824240446e-13 1 I I 0 -1 5.00000000000017053 forward I I I I #
coedge $-1 -1 $-1 $172 $219 $263 $351 reversed $127 $-1 #
color-adesk-attrib $-1 -1 $-1 $-1 $173 256 #
vertex $-1 -1 $-1 $179 $352 #
straight-curve $-1 -1 $-1 225.6337274852314181 25.57621932808781295 364.6969452865389485 -1 0 -2.348901605818508738e-15 F 0 F 24.20000000000004547 #
point $-1 -1 $-1 225.6337274852314181 25.57621932808781295 364.6969452865389485 #
coedge $-1 -1 $-1 $211 $178 $258 $351 forward $187 $-1 #
coedge $-1 -1 $-1 $178 $353 $180 $267 forward $187 $-1 #
color-adesk-attrib $-1 -1 $-1 $-1 $179 256 #
straight-curve $-1 -1 $-1 202.233727485231384 28.57621932808781295 364.6969452865389485 0 -1 0 I I #
edge $354 -1 $-1 $355 -1.570796326794918318 $183 0 $264 $356 forward @7 unknown #
point $-1 -1 $-1 202.233727485231384 13.57621932808781473 364.6969452865389485 #
loop $-1 -1 $-1 $357 $358 $125 #
coedge $-1 -1 $-1 $359 $189 $281 $360 reversed $127 $-1 #
coedge $-1 -1 $-1 $189 $201 $198 $284 reversed $127 $-1 #
coedge $-1 -1 $-1 $361 $362 $189 $273 forward $192 $-1 #
edge $363 -1 $-1 $364 -19.69793525206617346 $365 10.10206474793392317 $272 $366 forward @7 unknown #
color-adesk-attrib $-1 -1 $-1 $-1 $191 256 #
loop $-1 -1 $-1 $-1 $367 $191 #
plane-surface $-1 -1 $-1 271.4337274852313726 23.57621932808778453 416.6969452865389485 0 0 -1 -1 -0 -0 forward_v I I I I #
color-adesk-attrib $-1 -1 $-1 $-1 $195 256 #
face $368 -1 $-1 $369 $370 $3 $-1 $371 forward single #
loop $-1 -1 $-1 $-1 $372 $195 #
plane-surface $-1 -1 $-1 270.4337274852313726 25.57621932808781295 411.6969452865390053 1 0 0 0 0 -1 forward_v I I I I #
coedge $-1 -1 $-1 $373 $374 $270 $360 forward $196 $-1 #
coedge $-1 -1 $-1 $317 $198 $200 $285 forward $134 $-1 #
coedge $-1 -1 $-1 $198 $317 $361 $375 reversed $134 $-1 #
edge $376 -1 $-1 $365 0 $287 1.570796326794902331 $198 $377 forward @7 unknown #
edge $378 -1 $-1 $287 0 $320 0.8000000000000007105 $282 $379 forward @7 tangent #
color-adesk-attrib $-1 -1 $-1 $-1 $202 256 #
vertex $-1 -1 $-1 $284 $380 #
straight-curve $-1 -1 $-1 230.6337274852313328 25.57621932808781295 379.6969452865387211 8.526512829121395975e-15 0 -1 F 0 F 9.999999999999772626 #
color-adesk-attrib $-1 -1 $-1 $-1 $203 256 #
straight-curve $-1 -1 $-1 230.6337274852314181 25.57621932808781295 369.6969452865389485 0 1 0 I I #
point $-1 -1 $-1 230.6337274852314181 25.57621932808781295 369.6969452865389485 #
point $-1 -1 $-1 262.9337274852313726 25.57621932808782006 404.6969452865389485 #
coedge $-1 -1 $-1 $353 $211 $213 $297 forward $187 $-1 #
color-adesk-attrib $-1 -1 $-1 $-1 $212 256 #
vertex $-1 -1 $-1 $212 $381 #
straight-curve $-1 -1 $-1 202.233727485231384 28.57621932808781295 434.6969452865389485 0 -1 0 I I #
edge $382 -1 $-1 $216 -1.570796326794904774 $383 0 $293 $384 forward @7 unknown #
point $-1 -1 $-1 202.233727485231384 13.57621932808819487 434.6969452865389485 #
coedge $-1 -1 $-1 $219 $385 $221 $302 reversed $127 $-1 #
color-adesk-attrib $-1 -1 $-1 $-1 $220 256 #
straight-curve $-1 -1 $-1 201.4337274852332769 25.57621932808781295 434.6969452865389485 1 0 -4.697803211637486059e-15 F 0 F 24.19999999999762963 #
edge $386 -1 $-1 $224 0 $387 1.570796326794868136 $221 $388 forward @7 unknown #
face $389 -1 $-1 $85 $222 $3 $-1 $390 forward single #
point $-1 -1 $-1 225.6337274852309065 25.57621932808781295 434.6969452865388348 #
coedge $-1 -1 $-1 $391 $227 $392 $393 reversed $27 $-1 #
coedge $-1 -1 $-1 $394 $395 $227 $307 reversed $396 $-1 #
edge $397 -1 $-1 $312 0 $398 1.570796326794856812 $306 $399 forward @7 unknown #
coedge $-1 -1 $-1 $400 $228 $230 $314 reversed $310 $-1 #
coedge $-1 -1 $-1 $228 $400 $394 $401 forward $310 $-1 #
loop $-1 -1 $-1 $-1 $400 $402 #
color-adesk-attrib $-1 -1 $-1 $-1 $229 256 #
vertex $-1 -1 $-1 $401 $403 #
straight-curve $-1 -1 $-1 230.6337274852308781 26.37621932808781366 429.6969452865389485 1.065814103640142706e-14 0 -1 I I #
edge $404 -1 $-1 $387 0 $232 0.8000000000000007105 $230 $405 forward @7 tangent #
point $-1 -1 $-1 230.6337274852308781 26.37621932808781366 429.6969452865389485 #
coedge $-1 -1 $-1 $234 $406 $407 $408 reversed $27 $-1 #
coedge $-1 -1 $-1 $283 $282 $234 $318 reversed $134 $-1 #
edge $409 -1 $-1 $410 0 $320 1.570796326794902331 $317 $411 forward @7 unknown #
color-adesk-attrib $-1 -1 $-1 $-1 $236 256 #
vertex $-1 -1 $-1 $285 $412 #
straight-curve $-1 -1 $-1 230.6337274852313328 26.37621932808781366 379.6969452865387211 8.526512829121395975e-15 0 -1 I I #
point $-1 -1 $-1 230.6337274852314181 26.37621932808781366 369.6969452865389485 #
coedge $-1 -1 $-1 $413 $240 $242 $328 reversed $325 $-1 #
coedge $-1 -1 $-1 $240 $413 $246 $330 forward $325 $-1 #
loop $-1 -1 $-1 $-1 $324 $414 #
color-adesk-attrib $-1 -1 $-1 $-1 $241 256 #
straight-curve $-1 -1 $-1 201.4337274852313726 8.576219328087812954 364.6969452865389485 -0 -0 -1 I I #
edge $415 -1 $-1 $355 -0.8000000000000113687 $244 0 $323 $416 forward @7 tangent #
point $-1 -1 $-1 201.4337274852313726 8.57621932808782006 369.6969452865389485 #
edge $417 -1 $-1 $383 -0.8000000000000113687 $248 0 $324 $418 forward @7 tangent #
point $-1 -1 $-1 201.4337274852313726 8.576219328087812954 429.6969452865389485 #
coedge $-1 -1 $-1 $419 $250 $420 $421 forward $167 $-1 #
coedge $-1 -1 $-1 $250 $419 $422 $423 forward $167 $-1 #
coedge $-1 -1 $-1 $424 $425 $250 $335 reversed $426 $-1 #
edge $427 -1 $-1 $428 0 $429 3.141592653589793116 $250 $430 forward @7 unknown #
coedge $-1 -1 $-1 $252 $251 $431 $432 forward $108 $-1 #
coedge $-1 -1 $-1 $433 $434 $251 $338 reversed $435 $-1 #
edge $436 -1 $-1 $346 -15 $437 -5 $251 $438 forward @7 unknown #
coedge $-1 -1 $-1 $439 $440 $252 $340 reversed $441 $-1 #
edge $442 -1 $-1 $443 -0 $345 10 $252 $444 forward @7 unknown #
coedge $-1 -1 $-1 $445 $253 $440 $446 reversed $343 $-1 #
coedge $-1 -1 $-1 $253 $445 $433 $447 forward $343 $-1 #
loop $-1 -1 $-1 $-1 $253 $448 #
color-adesk-attrib $-1 -1 $-1 $-1 $254 256 #
vertex $-1 -1 $-1 $254 $449 #
vertex $-1 -1 $-1 $254 $450 #
ellipse-curve $-1 -1 $-1 201.4337274852313726 18.57621932808781295 414.6969452865389485 1 0 0 0 3.25 0 1 I I #
color-adesk-attrib $-1 -1 $-1 $-1 $256 256 #
face $451 -1 $-1 $452 $453 $3 $-1 $454 reversed single #
cone-surface $-1 -1 $-1 201.4337274852313726 13.57621932808776322 369.6969452865388917 1 0 0 0 5.151434834260726348e-14 -4.999999999999943157 1 I I 0 -1 4.999999999999943157 forward I I I I #
edge $455 -1 $-1 $260 -17.62465701737755808 $295 52.37534298262249877 $263 $456 forward @7 unknown #
point $-1 -1 $-1 202.233727485231384 25.57621932808781295 364.6969452865388917 #
coedge $-1 -1 $-1 $264 $293 $413 $457 reversed $187 $-1 #
color-adesk-attrib $-1 -1 $-1 $-1 $267 256 #
vertex $-1 -1 $-1 $457 $458 #
ellipse-curve $-1 -1 $-1 202.233727485231384 13.57621932808776322 369.6969452865388917 1 0 0 0 5.151434834260726348e-14 -4.999999999999943157 1 I I #
loop $-1 -1 $-1 $-1 $459 $125 #
coedge $-1 -1 $-1 $460 $461 $462 $463 forward $269 $-1 #
coedge $-1 -1 $-1 $464 $270 $372 $465 reversed $127 $-1 #
edge $466 -1 $-1 $467 0 $364 1.570796326794907882 $281 $468 forward @7 unknown #
coedge $-1 -1 $-1 $407 $272 $283 $375 forward $192 $-1 #
coedge $-1 -1 $-1 $272 $407 $373 $469 reversed $192 $-1 #
color-adesk-attrib $-1 -1 $-1 $-1 $273 256 #
vertex $-1 -1 $-1 $360 $470 #
vertex $-1 -1 $-1 $273 $471 #
straight-curve $-1 -1 $-1 245.7357922331651991 25.57621932808781295 384.6969452865388917 -1 0 3.193450497798236915e-15 I I #
coedge $-1 -1 $-1 $472 $473 $474 $475 forward $275 $-1 #
color-adesk-attrib $-1 -1 $-1 $-1 $278 256 #
face $476 -1 $-1 $402 $396 $3 $-1 $477 forward single #
loop $-1 -1 $-1 $-1 $478 $278 #
cone-surface $-1 -1 $-1 265.4337274852314295 25.57621932808781295 411.6969452865389485 0 1 0 -5.684341886080801487e-14 0 5 1 I I 0 1 5 forward I I I I #
coedge $-1 -1 $-1 $479 $480 $359 $465 forward $279 $-1 #
coedge $-1 -1 $-1 $481 $281 $362 $469 forward $196 $-1 #
coedge $-1 -1 $-1 $281 $481 $479 $482 reversed $196 $-1 #
edge $483 -1 $-1 $365 0 $410 0.8000000000000007105 $361 $484 forward @7 tangent #
color-adesk-attrib $-1 -1 $-1 $-1 $284 256 #
ellipse-curve $-1 -1 $-1 235.6337274852313044 25.57621932808781295 379.696945286538778 0 -1 0 -2.842170943040400743e-14 0 5 1 F 0 F 1.570796326794902331 #
color-adesk-attrib $-1 -1 $-1 $-1 $285 256 #
straight-curve $-1 -1 $-1 230.6337274852313044 25.57621932808781295 379.6969452865387211 0 1 0 I I #
point $-1 -1 $-1 230.6337274852313044 25.57621932808781295 379.6969452865387211 #
point $-1 -1 $-1 202.233727485231384 25.57621932808781295 434.6969452865389485 #
color-adesk-attrib $-1 -1 $-1 $-1 $297 256 #
vertex $-1 -1 $-1 $297 $485 #
ellipse-curve $-1 -1 $-1 202.233727485231384 13.57621932808798348 429.696945286538778 1 0 0 0 -5.00000000000017053 1.705302565824240446e-13 1 I I #
coedge $-1 -1 $-1 $299 $486 $400 $487 reversed $127 $-1 #
color-adesk-attrib $-1 -1 $-1 $-1 $302 256 #
vertex $-1 -1 $-1 $302 $488 #
ellipse-curve $-1 -1 $-1 225.6337274852308781 25.57621932808781295 429.6969452865388348 0 1 0 2.842170943040400743e-14 0 5 1 F 0 F 1.570796326794868136 #
color-adesk-attrib $-1 -1 $-1 $-1 $303 256 #
cone-surface $-1 -1 $-1 225.6337274852308781 25.57621932808781295 429.6969452865388348 0 1 0 2.842170943040400743e-14 0 5 1 I I 0 1 5 forward I I I I #
coedge $-1 -1 $-1 $489 $305 $490 $491 forward $27 $-1 #
coedge $-1 -1 $-1 $473 $472 $305 $393 forward $275 $-1 #
edge $492 -1 $-1 $493 -29 $398 0.8000000000003808509 $392 $494 forward @7 unknown #
coedge $-1 -1 $-1 $495 $306 $309 $401 reversed $396 $-1 #
coedge $-1 -1 $-1 $306 $495 $473 $496 forward $396 $-1 #
loop $-1 -1 $-1 $-1 $495 $369 #
color-adesk-attrib $-1 -1 $-1 $-1 $307 256 #
vertex $-1 -1 $-1 $496 $497 #
ellipse-curve $-1 -1 $-1 235.6337274852310202 26.37621932808781366 421.6969452865390622 0 -1 0 -5.000000000000056843 0 -1.705302565824240446e-13 1 I I #
coedge $-1 -1 $-1 $309 $308 $385 $487 forward $310 $-1 #
edge $498 -1 $-1 $499 0 $312 0.8000000000000007105 $309 $500 forward @7 tangent #
face $501 -1 $-1 $303 $310 $3 $-1 $502 forward single #
point $-1 -1 $-1 230.6337274852309633 26.37621932808781366 421.6969452865388917 #
color-adesk-attrib $-1 -1 $-1 $-1 $314 256 #
straight-curve $-1 -1 $-1 230.6337274852308781 25.57621932808781295 429.6969452865389485 0 1 0 I I #
coedge $-1 -1 $-1 $316 $489 $481 $503 forward $27 $-1 #
coedge $-1 -1 $-1 $362 $361 $316 $408 forward $192 $-1 #
edge $504 -1 $-1 $410 14.59999999999990905 $505 44.40000000000000568 $407 $506 forward @7 unknown #
color-adesk-attrib $-1 -1 $-1 $-1 $318 256 #
vertex $-1 -1 $-1 $375 $507 #
ellipse-curve $-1 -1 $-1 235.6337274852313044 26.37621932808781366 379.696945286538778 0 -1 0 -2.842170943040400743e-14 0 5 1 I I #
point $-1 -1 $-1 230.6337274852313044 26.37621932808781366 379.6969452865387211 #
coedge $-1 -1 $-1 $324 $323 $353 $457 forward $325 $-1 #
face $508 -1 $-1 $89 $325 $3 $-1 $509 forward single #
color-adesk-attrib $-1 -1 $-1 $-1 $328 256 #
straight-curve $-1 -1 $-1 201.4337274852313726 8.576219328087812954 369.6969452865388917 -1 -0 0 I I #
color-adesk-attrib $-1 -1 $-1 $-1 $330 256 #
straight-curve $-1 -1 $-1 201.4337274852313726 8.576219328087812954 429.696945286538778 -1 -0 0 I I #
coedge $-1 -1 $-1 $333 $332 $510 $511 forward $167 $-1 #
coedge $-1 -1 $-1 $512 $513 $332 $421 reversed $514 $-1 #
edge $515 -1 $-1 $429 -30 $516 -20 $332 $517 forward @7 unknown #
coedge $-1 -1 $-1 $518 $519 $333 $423 reversed $520 $-1 #
edge $521 -1 $-1 $522 25 $428 35 $333 $523 forward @7 unknown #
coedge $-1 -1 $-1 $462 $334 $519 $524 forward $426 $-1 #
coedge $-1 -1 $-1 $334 $462 $512 $525 reversed $426 $-1 #
loop $-1 -1 $-1 $-1 $462 $526 #
color-adesk-attrib $-1 -1 $-1 $-1 $335 256 #
vertex $-1 -1 $-1 $335 $527 #
vertex $-1 -1 $-1 $335 $528 #
ellipse-curve $-1 -1 $-1 201.4337274852313726 18.57621932808781295 374.6969452865389485 1 0 0 0 -3.25 0 1 I I #
coedge $-1 -1 $-1 $529 $530 $336 $432 reversed $453 $-1 #
edge $531 -1 $-1 $437 -3.141592653589793116 $443 0 $336 $532 forward @7 unknown #
coedge $-1 -1 $-1 $533 $337 $342 $447 reversed $435 $-1 #
coedge $-1 -1 $-1 $337 $533 $529 $534 forward $435 $-1 #
loop $-1 -1 $-1 $-1 $337 $535 #
color-adesk-attrib $-1 -1 $-1 $-1 $338 256 #
vertex $-1 -1 $-1 $338 $536 #
straight-curve $-1 -1 $-1 201.4337274852313726 21.82621932808781295 429.6969452865389485 0 0 1 I I #
coedge $-1 -1 $-1 $537 $339 $530 $538 reversed $441 $-1 #
coedge $-1 -1 $-1 $339 $537 $341 $446 forward $441 $-1 #
loop $-1 -1 $-1 $-1 $339 $452 #
color-adesk-attrib $-1 -1 $-1 $-1 $340 256 #
vertex $-1 -1 $-1 $432 $539 #
straight-curve $-1 -1 $-1 201.4337274852313726 15.32621932808781295 424.6969452865389485 -0 -0 -1 I I #
coedge $-1 -1 $-1 $342 $341 $459 $540 reversed $343 $-1 #
edge $541 -1 $-1 $542 0 $345 0.8000000000000113687 $440 $543 forward @7 tangent #
edge $544 -1 $-1 $545 0 $346 0.8000000000000113687 $433 $546 forward @7 tangent #
face $547 -1 $-1 $535 $343 $3 $-1 $548 reversed single #
point $-1 -1 $-1 201.4337274852313726 15.32621932808781295 414.6969452865389485 #
point $-1 -1 $-1 201.4337274852313726 21.82621932808781295 414.6969452865389485 #
color-adesk-attrib $-1 -1 $-1 $-1 $349 256 #
face $549 -1 $-1 $448 $441 $3 $-1 $550 reversed single #
loop $-1 -1 $-1 $-1 $431 $349 #
cone-surface $-1 -1 $-1 202.233727485231384 18.57621932808781295 424.6969452865389485 -1 0 0 0 -3.25 0 1 I I 0 1 3.25 forward I I I I #
color-adesk-attrib $-1 -1 $-1 $-1 $351 256 #
straight-curve $-1 -1 $-1 202.233727485231384 25.57621932808782006 382.3216023039164497 0 0 1 I I #
edge $551 -1 $-1 $355 -65 $383 -5 $353 $552 forward @7 unknown #
point $-1 -1 $-1 202.233727485231384 8.57621932808782006 369.6969452865389485 #
coedge $-1 -1 $-1 $553 $554 $445 $540 forward $357 $-1 #
coedge $-1 -1 $-1 $555 $358 $556 $557 forward $269 $-1 #
coedge $-1 -1 $-1 $358 $555 $558 $559 forward $269 $-1 #
coedge $-1 -1 $-1 $425 $424 $358 $463 reversed $426 $-1 #
edge $560 -1 $-1 $561 -3.141592653589793116 $562 0 $358 $563 forward @7 unknown #
coedge $-1 -1 $-1 $474 $359 $478 $564 reversed $127 $-1 #
edge $565 -1 $-1 $566 0 $467 22.00000000000017053 $372 $567 forward @7 unknown #
color-adesk-attrib $-1 -1 $-1 $-1 $360 256 #
vertex $-1 -1 $-1 $465 $568 #
ellipse-curve $-1 -1 $-1 265.4337274852313726 25.57621932808781295 389.696945286538778 0 1 0 5 0 5.684341886080801487e-14 1 F 0 F 1.570796326794907882 #
edge $569 -1 $-1 $364 0 $505 0.8000000000000007105 $373 $570 forward @7 tangent #
point $-1 -1 $-1 265.4337274852313726 25.57621932808781295 384.696945286538778 #
point $-1 -1 $-1 235.633727485231276 25.57621932808781295 384.696945286538778 #
coedge $-1 -1 $-1 $392 $367 $571 $572 forward $275 $-1 #
coedge $-1 -1 $-1 $367 $392 $395 $496 reversed $275 $-1 #
coedge $-1 -1 $-1 $486 $464 $367 $475 reversed $127 $-1 #
edge $573 -1 $-1 $574 -25.50206474793415623 $575 4.297935252066224621 $367 $576 forward @7 unknown #
color-adesk-attrib $-1 -1 $-1 $-1 $369 256 #
cone-surface $-1 -1 $-1 235.6337274852310202 25.57621932808781295 421.6969452865390622 0 1 0 -5.000000000000056843 0 -1.705302565824240446e-13 1 I I 0 -1 5.000000000000056843 forward I I I I #
coedge $-1 -1 $-1 $577 $571 $464 $564 forward $370 $-1 #
coedge $-1 -1 $-1 $578 $372 $374 $482 forward $279 $-1 #
coedge $-1 -1 $-1 $372 $578 $577 $579 reversed $279 $-1 #
coedge $-1 -1 $-1 $374 $373 $406 $503 reversed $196 $-1 #
edge $580 -1 $-1 $467 0 $581 0.8000000000000007105 $479 $582 forward @7 tangent #
color-adesk-attrib $-1 -1 $-1 $-1 $375 256 #
straight-curve $-1 -1 $-1 235.633727485231276 25.57621932808781295 384.696945286538778 0 1 0 I I #
point $-1 -1 $-1 202.233727485231384 8.576219328087812954 429.6969452865389485 #
coedge $-1 -1 $-1 $385 $474 $495 $583 reversed $127 $-1 #
edge $584 -1 $-1 $387 0 $499 8.000000000000056843 $400 $585 forward @7 unknown #
point $-1 -1 $-1 230.6337274852308781 25.57621932808781295 429.6969452865389485 #
coedge $-1 -1 $-1 $406 $391 $578 $586 forward $27 $-1 #
coedge $-1 -1 $-1 $571 $577 $391 $491 reversed $370 $-1 #
edge $587 -1 $-1 $493 0 $588 1.570796326794896558 $490 $589 forward @7 unknown #
color-adesk-attrib $-1 -1 $-1 $-1 $393 256 #
vertex $-1 -1 $-1 $572 $590 #
straight-curve $-1 -1 $-1 236.4337274852313726 26.37621932808781366 416.6969452865389485 -1 -0 -0 I I #
coedge $-1 -1 $-1 $395 $394 $486 $583 forward $396 $-1 #
edge $591 -1 $-1 $574 0 $398 0.8000000000000007105 $395 $592 forward @7 tangent #
point $-1 -1 $-1 235.6337274852309918 26.37621932808781366 416.6969452865390053 #
color-adesk-attrib $-1 -1 $-1 $-1 $401 256 #
vertex $-1 -1 $-1 $487 $593 #
straight-curve $-1 -1 $-1 230.6337274852309633 25.57621932808781295 421.6969452865388917 0 1 0 I I #
color-adesk-attrib $-1 -1 $-1 $-1 $402 256 #
plane-surface $-1 -1 $-1 230.6337274852308781 25.57621932808781295 429.6969452865389485 1 0 1.065814103640142706e-14 1.065814103640142706e-14 0 -1 forward_v I I I I #
edge $594 -1 $-1 $581 0 $505 1.570796326794907882 $481 $595 forward @7 unknown #
color-adesk-attrib $-1 -1 $-1 $-1 $408 256 #
vertex $-1 -1 $-1 $469 $596 #
straight-curve $-1 -1 $-1 221.0337274852313669 26.37621932808781366 384.6969452865389485 1 0 -3.193450497798236915e-15 I I #
point $-1 -1 $-1 235.633727485231276 26.37621932808781366 384.696945286538778 #
color-adesk-attrib $-1 -1 $-1 $-1 $414 256 #
plane-surface $-1 -1 $-1 201.8337274852314351 8.576219328087812954 399.6969452865390622 0 -1 0 0 0 -1 forward_v I I I I #
coedge $-1 -1 $-1 $597 $598 $419 $511 reversed $599 $-1 #
edge $600 -1 $-1 $516 0 $522 3.141592653589793116 $419 $601 forward @7 unknown #
coedge $-1 -1 $-1 $558 $420 $425 $525 forward $514 $-1 #
coedge $-1 -1 $-1 $420 $558 $597 $602 reversed $514 $-1 #
loop $-1 -1 $-1 $-1 $558 $603 #
color-adesk-attrib $-1 -1 $-1 $-1 $421 256 #
vertex $-1 -1 $-1 $511 $604 #
straight-curve $-1 -1 $-1 201.4337274852313726 21.82621932808781295 404.6969452865389485 0 0 1 I I #
coedge $-1 -1 $-1 $556 $422 $598 $605 forward $520 $-1 #
coedge $-1 -1 $-1 $422 $556 $424 $524 reversed $520 $-1 #
loop $-1 -1 $-1 $-1 $556 $606 #
color-adesk-attrib $-1 -1 $-1 $-1 $423 256 #
vertex $-1 -1 $-1 $423 $607 #
straight-curve $-1 -1 $-1 201.4337274852313726 15.32621932808781295 409.6969452865389485 -0 -0 -1 I I #
edge $608 -1 $-1 $428 0 $562 0.8000000000000113687 $519 $609 forward @7 tangent #
edge $610 -1 $-1 $429 0 $561 0.8000000000000113687 $512 $611 forward @7 tangent #
face $612 -1 $-1 $606 $426 $3 $-1 $613 reversed single #
point $-1 -1 $-1 201.4337274852313726 15.32621932808781295 374.6969452865389485 #
point $-1 -1 $-1 201.4337274852313726 21.82621932808781295 374.6969452865389485 #
coedge $-1 -1 $-1 $614 $431 $434 $534 reversed $453 $-1 #
coedge $-1 -1 $-1 $431 $614 $439 $538 forward $453 $-1 #
color-adesk-attrib $-1 -1 $-1 $-1 $432 256 #
ellipse-curve $-1 -1 $-1 201.4337274852313726 18.57621932808781295 424.6969452865389485 1 0 0 0 -3.25 0 1 I I #
coedge $-1 -1 $-1 $434 $433 $554 $615 reversed $435 $-1 #
edge $616 -1 $-1 $617 0 $437 0.8000000000000113687 $529 $618 forward @7 tangent #
face $619 -1 $-1 $620 $435 $3 $-1 $621 reversed single #
point $-1 -1 $-1 201.4337274852313726 21.82621932808781295 424.6969452865389485 #
coedge $-1 -1 $-1 $440 $439 $553 $622 reversed $441 $-1 #
edge $623 -1 $-1 $624 0 $443 0.8000000000000113687 $439 $625 forward @7 tangent #
point $-1 -1 $-1 201.4337274852313726 15.32621932808781295 424.6969452865389485 #
edge $626 -1 $-1 $545 0 $542 3.141592653589793116 $459 $627 forward @7 unknown #
color-adesk-attrib $-1 -1 $-1 $-1 $446 256 #
vertex $-1 -1 $-1 $540 $628 #
straight-curve $-1 -1 $-1 202.233727485231384 15.32621932808781295 414.6969452865389485 -1 0 0 I I #
color-adesk-attrib $-1 -1 $-1 $-1 $447 256 #
vertex $-1 -1 $-1 $540 $629 #
straight-curve $-1 -1 $-1 202.233727485231384 21.82621932808781295 414.6969452865389485 -1 0 0 I I #
color-adesk-attrib $-1 -1 $-1 $-1 $448 256 #
cone-surface $-1 -1 $-1 202.233727485231384 18.57621932808781295 414.6969452865389485 -1 0 0 0 3.25 0 1 I I 0 1 3.25 forward I I I I #
color-adesk-attrib $-1 -1 $-1 $-1 $452 256 #
plane-surface $-1 -1 $-1 202.233727485231384 15.32621932808781295 414.6969452865389485 0 -1 0 0 0 1 forward_v I I I I #
color-adesk-attrib $-1 -1 $-1 $-1 $457 256 #
straight-curve $-1 -1 $-1 202.233727485231384 8.576219328087812954 434.6969452865389485 0 0 1 I I #
coedge $-1 -1 $-1 $630 $459 $537 $622 forward $357 $-1 #
coedge $-1 -1 $-1 $459 $630 $533 $615 forward $357 $-1 #
coedge $-1 -1 $-1 $461 $460 $631 $632 forward $269 $-1 #
coedge $-1 -1 $-1 $519 $518 $460 $557 reversed $520 $-1 #
edge $633 -1 $-1 $562 0 $634 10 $460 $635 forward @7 unknown #
coedge $-1 -1 $-1 $513 $512 $461 $559 reversed $514 $-1 #
edge $636 -1 $-1 $637 -15 $561 -5 $461 $638 forward @7 unknown #
color-adesk-attrib $-1 -1 $-1 $-1 $463 256 #
vertex $-1 -1 $-1 $463 $639 #
vertex $-1 -1 $-1 $463 $640 #
ellipse-curve $-1 -1 $-1 202.233727485231384 18.57621932808781295 374.6969452865389485 -1 -0 -0 0 -3.25 0 1 I I #
edge $641 -1 $-1 $575 0 $566 1.570796326794896558 $478 $642 forward @7 unknown #
color-adesk-attrib $-1 -1 $-1 $-1 $465 256 #
vertex $-1 -1 $-1 $564 $643 #
straight-curve $-1 -1 $-1 270.4337274852313726 25.57621932808781295 411.6969452865390053 0 0 -1 F 0 F 22.00000000000017053 #
point $-1 -1 $-1 270.4337274852313726 25.57621932808781295 389.6969452865388348 #
color-adesk-attrib $-1 -1 $-1 $-1 $469 256 #
straight-curve $-1 -1 $-1 265.4337274852313726 25.57621932808781295 384.696945286538778 0 1 0 I I #
coedge $-1 -1 $-1 $478 $490 $472 $572 reversed $370 $-1 #
edge $644 -1 $-1 $575 0 $493 0.8000000000000007105 $472 $645 forward @7 tangent #
color-adesk-attrib $-1 -1 $-1 $-1 $475 256 #
vertex $-1 -1 $-1 $583 $646 #
vertex $-1 -1 $-1 $475 $647 #
straight-curve $-1 -1 $-1 261.135792233165148 25.57621932808781295 416.6969452865389485 1 -0 0 I I #
coedge $-1 -1 $-1 $490 $478 $480 $579 forward $370 $-1 #
coedge $-1 -1 $-1 $480 $479 $489 $586 reversed $279 $-1 #
edge $648 -1 $-1 $566 0 $588 0.8000000000000007105 $577 $649 forward @7 tangent #
color-adesk-attrib $-1 -1 $-1 $-1 $482 256 #
vertex $-1 -1 $-1 $482 $650 #
straight-curve $-1 -1 $-1 270.4337274852313726 25.57621932808781295 389.6969452865388348 0 1 0 I I #
edge $651 -1 $-1 $499 0 $574 1.570796326794856812 $495 $652 forward @7 unknown #
color-adesk-attrib $-1 -1 $-1 $-1 $487 256 #
straight-curve $-1 -1 $-1 230.6337274852308781 25.57621932808781295 429.6969452865389485 1.065814103640142706e-14 0 -1 F 0 F 8.000000000000056843 #
edge $653 -1 $-1 $588 0 $581 22.00000000000017053 $578 $654 forward @7 unknown #
color-adesk-attrib $-1 -1 $-1 $-1 $491 256 #
vertex $-1 -1 $-1 $579 $655 #
ellipse-curve $-1 -1 $-1 265.4337274852314295 26.37621932808781366 411.6969452865389485 0 1 0 -5.684341886080801487e-14 0 5 1 I I #
point $-1 -1 $-1 265.4337274852313726 26.37621932808781366 416.6969452865389485 #
color-adesk-attrib $-1 -1 $-1 $-1 $496 256 #
straight-curve $-1 -1 $-1 235.6337274852309918 25.57621932808781295 416.6969452865390053 0 1 0 I I #
point $-1 -1 $-1 230.6337274852309633 25.57621932808781295 421.6969452865388917 #
color-adesk-attrib $-1 -1 $-1 $-1 $503 256 #
ellipse-curve $-1 -1 $-1 265.4337274852313726 26.37621932808781366 389.696945286538778 0 1 0 5 0 5.684341886080801487e-14 1 I I #
point $-1 -1 $-1 265.4337274852313726 26.37621932808781366 384.696945286538778 #
coedge $-1 -1 $-1 $631 $510 $513 $602 forward $599 $-1 #
coedge $-1 -1 $-1 $510 $631 $518 $605 reversed $599 $-1 #
loop $-1 -1 $-1 $-1 $631 $620 #
color-adesk-attrib $-1 -1 $-1 $-1 $511 256 #
ellipse-curve $-1 -1 $-1 201.4337274852313726 18.57621932808781295 384.6969452865389485 1 0 0 0 3.25 0 1 I I #
edge $656 -1 $-1 $516 0 $637 0.8000000000000113687 $513 $657 forward @7 tangent #
face $658 -1 $-1 $526 $514 $3 $-1 $659 reversed single #
point $-1 -1 $-1 201.4337274852313726 21.82621932808781295 384.6969452865389485 #
edge $660 -1 $-1 $522 0 $634 0.8000000000000113687 $598 $661 forward @7 tangent #
face $662 -1 $-1 $414 $520 $3 $-1 $663 reversed single #
point $-1 -1 $-1 201.4337274852313726 15.32621932808781295 384.6969452865389485 #
color-adesk-attrib $-1 -1 $-1 $-1 $524 256 #
straight-curve $-1 -1 $-1 201.4337274852313726 15.32621932808781295 374.6969452865389485 1 0 0 I I #
color-adesk-attrib $-1 -1 $-1 $-1 $525 256 #
straight-curve $-1 -1 $-1 201.4337274852313726 21.82621932808781295 374.6969452865389485 1 0 0 I I #
color-adesk-attrib $-1 -1 $-1 $-1 $526 256 #
cone-surface $-1 -1 $-1 201.4337274852313726 18.57621932808781295 374.6969452865389485 1 0 0 0 -3.25 0 1 I I 0 1 3.25 forward I I I I #
coedge $-1 -1 $-1 $530 $529 $630 $664 reversed $453 $-1 #
edge $665 -1 $-1 $617 -30 $545 -20 $554 $666 forward @7 unknown #
color-adesk-attrib $-1 -1 $-1 $-1 $534 256 #
vertex $-1 -1 $-1 $615 $667 #
straight-curve $-1 -1 $-1 202.233727485231384 21.82621932808781295 424.6969452865389485 -1 0 0 I I #
color-adesk-attrib $-1 -1 $-1 $-1 $535 256 #
face $668 -1 $-1 $603 $599 $3 $-1 $669 reversed single #
plane-surface $-1 -1 $-1 202.233727485231384 21.82621932808781295 424.6969452865389485 0 1 0 0 0 -1 forward_v I I I I #
edge $670 -1 $-1 $542 25 $624 35 $553 $671 forward @7 unknown #
color-adesk-attrib $-1 -1 $-1 $-1 $538 256 #
vertex $-1 -1 $-1 $664 $672 #
straight-curve $-1 -1 $-1 202.233727485231384 15.32621932808781295 424.6969452865389485 -1 0 0 I I #
color-adesk-attrib $-1 -1 $-1 $-1 $540 256 #
ellipse-curve $-1 -1 $-1 202.233727485231384 18.57621932808781295 414.6969452865389485 -1 -0 -0 0 3.25 0 1 I I #
point $-1 -1 $-1 202.233727485231384 15.32621932808781295 414.6969452865389485 #
point $-1 -1 $-1 202.233727485231384 21.82621932808781295 414.6969452865389485 #
coedge $-1 -1 $-1 $554 $553 $614 $664 forward $357 $-1 #
coedge $-1 -1 $-1 $598 $597 $555 $632 reversed $599 $-1 #
edge $673 -1 $-1 $634 -3.141592653589793116 $637 0 $555 $674 forward @7 unknown #
color-adesk-attrib $-1 -1 $-1 $-1 $557 256 #
vertex $-1 -1 $-1 $557 $675 #
straight-curve $-1 -1 $-1 202.233727485231384 15.32621932808781295 374.6969452865389485 0 0 1 I I #
color-adesk-attrib $-1 -1 $-1 $-1 $559 256 #
vertex $-1 -1 $-1 $632 $676 #
straight-curve $-1 -1 $-1 202.233727485231384 21.82621932808781295 369.6969452865389485 0 0 -1 I I #
point $-1 -1 $-1 202.233727485231384 21.82621932808781295 374.6969452865389485 #
point $-1 -1 $-1 202.233727485231384 15.32621932808781295 374.6969452865389485 #
color-adesk-attrib $-1 -1 $-1 $-1 $564 256 #
ellipse-curve $-1 -1 $-1 265.4337274852314295 25.57621932808781295 411.6969452865389485 0 1 0 -5.684341886080801487e-14 0 5 1 F 0 F 1.570796326794896558 #
point $-1 -1 $-1 270.4337274852314295 25.57621932808781295 411.6969452865390053 #
color-adesk-attrib $-1 -1 $-1 $-1 $572 256 #
straight-curve $-1 -1 $-1 265.4337274852313726 25.57621932808781295 416.6969452865389485 0 1 0 I I #
point $-1 -1 $-1 235.6337274852309918 25.57621932808781295 416.6969452865390053 #
point $-1 -1 $-1 265.4337274852313726 25.57621932808781295 416.6969452865389485 #
color-adesk-attrib $-1 -1 $-1 $-1 $579 256 #
straight-curve $-1 -1 $-1 270.4337274852314295 25.57621932808781295 411.6969452865390053 0 1 0 I I #
point $-1 -1 $-1 270.4337274852313726 26.37621932808781366 389.6969452865388348 #
color-adesk-attrib $-1 -1 $-1 $-1 $583 256 #
ellipse-curve $-1 -1 $-1 235.6337274852310202 25.57621932808781295 421.6969452865390622 0 -1 0 -5.000000000000056843 0 -1.705302565824240446e-13 1 F 0 F 1.570796326794856812 #
color-adesk-attrib $-1 -1 $-1 $-1 $586 256 #
straight-curve $-1 -1 $-1 270.4337274852313726 26.37621932808781366 411.6969452865390053 0 0 -1 I I #
point $-1 -1 $-1 270.4337274852314295 26.37621932808781366 411.6969452865390053 #
color-adesk-attrib $-1 -1 $-1 $-1 $602 256 #
straight-curve $-1 -1 $-1 201.4337274852313726 21.82621932808781295 384.6969452865389485 1 0 0 I I #
color-adesk-attrib $-1 -1 $-1 $-1 $603 256 #
plane-surface $-1 -1 $-1 201.4337274852313726 21.82621932808781295 374.6969452865389485 0 1 0 0 0 1 forward_v I I I I #
color-adesk-attrib $-1 -1 $-1 $-1 $605 256 #
straight-curve $-1 -1 $-1 201.4337274852313726 15.32621932808781295 384.6969452865389485 1 0 0 I I #
color-adesk-attrib $-1 -1 $-1 $-1 $606 256 #
plane-surface $-1 -1 $-1 201.4337274852313726 15.32621932808781295 384.6969452865389485 0 -1 0 0 0 -1 forward_v I I I I #
edge $677 -1 $-1 $624 0 $617 3.141592653589793116 $630 $678 forward @7 unknown #
color-adesk-attrib $-1 -1 $-1 $-1 $615 256 #
straight-curve $-1 -1 $-1 202.233727485231384 21.82621932808781295 394.6969452865389485 0 0 -1 I I #
point $-1 -1 $-1 202.233727485231384 21.82621932808781295 424.6969452865389485 #
color-adesk-attrib $-1 -1 $-1 $-1 $620 256 #
cone-surface $-1 -1 $-1 201.4337274852313726 18.57621932808781295 384.6969452865389485 1 0 0 0 3.25 0 1 I I 0 1 3.25 forward I I I I #
color-adesk-attrib $-1 -1 $-1 $-1 $622 256 #
straight-curve $-1 -1 $-1 202.233727485231384 15.32621932808781295 389.6969452865389485 0 0 1 I I #
point $-1 -1 $-1 202.233727485231384 15.32621932808781295 424.6969452865389485 #
color-adesk-attrib $-1 -1 $-1 $-1 $632 256 #
ellipse-curve $-1 -1 $-1 202.233727485231384 18.57621932808781295 384.6969452865389485 -1 -0 -0 0 3.25 0 1 I I #
point $-1 -1 $-1 202.233727485231384 15.32621932808781295 384.6969452865389485 #
point $-1 -1 $-1 202.233727485231384 21.82621932808781295 384.6969452865389485 #
color-adesk-attrib $-1 -1 $-1 $-1 $664 256 #
ellipse-curve $-1 -1 $-1 202.233727485231384 18.57621932808781295 424.6969452865389485 -1 -0 -0 0 -3.25 0 1 I I #
